<!DOCTYPE svg PUBLIC "-//W3C//DTD SVG 20010904//EN" "http://www.w3.org/TR/2001/REC-SVG-20010904/DTD/svg10.dtd">
<svg version="1.0" xmlns="http://www.w3.org/2000/svg" width="600px" height="600px" viewBox="0 0 6000 6000" preserveAspectRatio="xMidYMid meet">
<g id="layer101" fill="#000000" stroke="none">
 <path d="M5355 5309 c7 -49 6 -53 -28 -87 -34 -36 -35 -39 -47 -161 l-12 -125 -215 -268 -216 -268 -62 0 c-47 0 -65 4 -77 18 -23 28 -38 70 -38 110 0 47 -22 129 -50 187 -18 38 -20 50 -11 77 15 44 14 58 -7 58 -25 0 -118 -108 -171 -197 -43 -73 -43 -73 -33 -130 17 -93 27 -110 79 -136 26 -13 64 -27 83 -31 40 -7 136 -66 132 -81 -1 -6 -14 -13 -29 -17 -31 -8 -291 7 -383 22 -194 33 -491 67 -543 63 -53 -5 -60 -9 -100 -53 -31 -35 -48 -65 -61 -111 -25 -90 -70 -194 -114 -263 l-37 -60 -70 3 c-45 2 -73 7 -79 17 -6 7 -48 32 -94 54 l-83 40 -234 -10 c-140 -6 -243 -6 -257 -1 -33 13 -307 259 -558 501 -118 113 -233 218 -255 233 -25 16 -61 29 -96 33 l-56 6 -348 -171 c-192 -94 -350 -173 -351 -174 -3 -3 -34 -384 -34 -414 0 -12 22 -48 48 -80 38 -45 69 -68 138 -105 81 -43 98 -48 182 -54 77 -6 99 -4 132 11 l39 18 -5 61 -6 61 56 55 c57 55 71 90 38 90 -10 0 -27 -7 -39 -15 -20 -14 -22 -13 -33 20 -15 46 -46 61 -177 85 -59 11 -108 20 -108 20 -7 0 -37 84 -44 121 -10 56 3 92 45 130 37 32 104 54 104 33 0 -33 45 -164 56 -164 7 0 15 -8 19 -17 8 -27 102 -79 172 -97 86 -23 152 -7 187 43 26 37 63 185 68 271 2 25 6 44 11 43 4 -2 164 -174 357 -382 382 -415 342 -380 459 -393 23 -3 22 -5 -18 -46 -43 -44 -49 -67 -31 -119 8 -21 28 -39 70 -63 33 -19 60 -37 60 -41 0 -4 -24 -21 -53 -38 -68 -39 -144 -105 -153 -134 -15 -47 -59 -88 -143 -133 -106 -56 -106 -56 -165 -129 -32 -39 -79 -80 -137 -118 -99 -65 -123 -93 -123 -145 l0 -35 -125 -60 c-116 -55 -311 -164 -405 -226 -43 -28 -116 -114 -116 -136 0 -34 30 -45 122 -45 l91 0 -89 -54 c-105 -64 -201 -147 -219 -190 -16 -37 -6 -59 33 -80 l27 -14 -28 -11 c-16 -6 -36 -11 -45 -11 -9 0 -39 -12 -67 -26 -94 -46 -190 -83 -275 -104 -107 -27 -263 -99 -284 -133 -24 -35 -11 -54 52 -77 32 -11 64 -23 72 -26 8 -3 -46 -28 -120 -54 -152 -54 -303 -131 -326 -165 -28 -43 -18 -51 135 -100 78 -25 93 -27 225 -23 136 4 146 6 266 47 69 24 171 65 227 91 101 48 286 161 301 184 4 7 147 105 317 218 171 113 397 272 502 354 l193 149 214 300 c284 398 333 458 454 571 l103 96 102 -41 c84 -34 125 -44 232 -56 71 -8 187 -15 256 -15 90 0 137 -4 163 -15 48 -20 112 -109 261 -359 100 -170 130 -230 202 -415 47 -119 90 -241 96 -272 10 -54 9 -59 -21 -110 -19 -34 -35 -82 -43 -129 -11 -69 -10 -84 11 -180 22 -99 26 -147 15 -158 -7 -8 -124 19 -195 44 -36 13 -98 30 -138 39 -66 14 -76 13 -104 -1 -18 -10 -37 -31 -47 -55 -13 -32 -20 -39 -36 -34 -11 4 -70 9 -130 12 -96 5 -113 3 -128 -11 -23 -23 -22 -30 11 -68 58 -70 61 -68 -69 -32 -117 33 -134 35 -215 19 -43 -9 -35 -34 32 -110 43 -51 61 -77 52 -80 -30 -12 -206 35 -302 79 -82 38 -108 46 -158 46 -76 0 -92 -10 -113 -64 -15 -39 -16 -52 -5 -98 7 -29 18 -63 24 -74 22 -42 146 -136 226 -170 124 -54 440 -144 505 -144 54 0 55 -1 49 -25 -14 -55 45 -99 172 -129 70 -17 74 -17 150 4 44 12 90 29 104 38 45 28 141 114 375 336 151 143 245 225 273 237 35 15 169 39 220 39 8 0 43 28 78 62 67 64 124 164 153 270 14 51 21 56 92 59 54 3 80 -14 221 -149 48 -46 92 -81 98 -77 19 12 10 120 -19 222 -16 56 -33 108 -37 115 -21 35 -128 146 -201 208 -75 64 -91 73 -178 99 -52 15 -106 26 -119 24 -15 -3 -36 3 -55 18 -23 17 -50 24 -108 28 -43 4 -83 9 -89 13 -5 4 -62 76 -126 160 l-116 153 -142 325 c-81 186 -176 422 -220 552 -77 222 -81 229 -165 352 -47 69 -99 133 -114 142 -38 22 -66 81 -96 201 -14 56 -25 106 -25 112 0 5 17 13 38 17 28 6 653 -14 924 -29 37 -2 39 0 252 252 193 227 225 260 306 316 68 47 104 65 148 74 52 10 61 16 98 64 40 51 41 54 48 154 l7 102 -36 72 c-55 107 -105 179 -126 179 -11 0 -19 -5 -19 -11 0 -6 -13 -1 -29 10 -16 12 -37 21 -46 21 -15 0 -16 -7 -10 -51z m-3743 -849 l4 -40 -86 0 c-61 0 -96 -6 -126 -19 l-41 -19 -33 31 -33 31 24 8 c19 7 222 42 275 47 7 0 14 -17 16 -39z"/>
 </g>
<g id="layer102" fill="#0848c9" stroke="none">
 <path d="M5390 5277 c0 -25 -9 -42 -34 -66 -36 -35 -38 -47 -51 -229 -3 -53 -5 -56 -217 -319 -117 -147 -218 -272 -223 -280 -7 -9 -34 -14 -83 -14 -64 -1 -77 2 -99 23 -32 30 -53 81 -53 128 0 51 -37 170 -62 197 -14 15 -18 29 -13 45 10 36 -56 -40 -104 -122 -39 -66 -41 -70 -31 -119 5 -29 14 -60 20 -71 12 -22 79 -60 106 -60 34 0 131 -52 156 -84 39 -49 38 -56 -12 -72 -66 -20 -244 -10 -525 31 -252 36 -362 50 -382 48 -7 0 -32 -1 -54 -2 -35 -1 -47 -7 -79 -43 -24 -26 -43 -59 -50 -87 -20 -84 -58 -174 -122 -290 -18 -32 -18 -33 -1 -26 37 15 217 17 286 3 57 -12 67 -13 67 -1 0 8 -14 69 -31 135 -16 67 -29 133 -27 147 5 44 53 47 512 28 226 -10 432 -17 458 -17 l46 0 212 249 c190 224 220 255 305 314 64 45 107 67 137 72 55 9 77 23 110 71 21 32 27 55 32 124 5 80 4 89 -23 146 -48 101 -80 147 -95 135 -10 -8 -17 -7 -26 4 -8 9 -22 21 -32 26 -16 8 -18 6 -18 -24z"/>
 <path d="M1304 4536 c-182 -90 -334 -169 -338 -174 -3 -6 -13 -97 -22 -202 l-15 -192 26 -34 c45 -58 77 -83 160 -124 66 -33 95 -41 161 -46 104 -8 124 1 124 59 l0 42 -97 3 c-57 1 -119 9 -148 19 -51 16 -141 83 -143 106 -13 122 -16 191 -9 211 15 46 22 28 22 -61 0 -49 4 -105 8 -125 16 -78 129 -129 282 -127 78 0 81 1 107 33 29 35 29 40 -11 116 -10 19 -56 35 -146 50 -38 7 -80 14 -93 17 -33 8 -67 68 -80 140 -14 79 -2 116 53 164 49 43 174 80 350 104 66 9 124 17 130 18 10 2 28 -121 19 -135 -3 -4 -46 -8 -95 -8 -70 0 -102 -5 -139 -21 l-50 -21 5 -46 c3 -33 11 -51 27 -64 101 -76 243 -91 287 -29 22 31 56 183 66 294 4 37 10 67 15 67 4 0 173 -180 375 -399 412 -448 361 -409 530 -412 82 -2 97 1 163 30 91 40 100 36 158 -57 1 -2 32 20 70 48 75 57 101 70 145 70 45 0 27 17 -56 56 l-73 33 -224 -10 c-207 -9 -276 -6 -288 10 -3 4 -70 64 -150 134 -158 140 -165 147 -416 389 -200 193 -242 225 -310 232 -47 5 -61 0 -380 -158z"/>
 <path d="M3510 3858 c-90 -16 -93 -12 75 -104 37 -20 77 -53 102 -84 89 -110 97 -236 24 -384 -23 -47 -53 -94 -67 -105 -34 -26 -17 -31 119 -32 153 0 186 -16 265 -124 65 -89 305 -488 317 -526 4 -13 42 -112 85 -219 43 -107 81 -213 84 -235 12 -68 13 -68 111 -20 50 25 102 45 116 45 39 0 42 11 11 44 -16 17 -77 94 -135 171 l-106 140 -146 335 c-81 184 -183 436 -226 560 -71 203 -85 235 -146 325 -80 118 -147 189 -188 199 -114 27 -197 31 -295 14z"/>
 <path d="M3099 3786 c-35 -24 -79 -60 -97 -80 -40 -46 -52 -46 -45 -1 5 29 1 41 -17 60 -30 32 -46 31 -127 -5 -36 -16 -74 -30 -85 -30 -10 0 -41 -21 -68 -46 -40 -38 -50 -53 -50 -80 0 -28 6 -36 48 -59 l47 -27 60 22 c70 27 145 37 145 21 0 -6 -13 -11 -30 -11 -28 0 -127 -34 -142 -48 -4 -4 2 -26 13 -49 14 -31 26 -43 41 -43 24 0 88 -37 88 -51 0 -6 -9 -8 -20 -4 -15 5 -33 -6 -72 -42 -44 -41 -81 -61 -218 -117 -262 -108 -324 -146 -361 -218 -18 -36 -32 -46 -187 -143 -46 -29 -51 -42 -9 -26 21 8 30 7 42 -6 15 -15 14 -19 -22 -50 -62 -57 -112 -87 -233 -143 -63 -29 -162 -80 -220 -115 -58 -34 -126 -74 -152 -88 -25 -15 -56 -39 -68 -54 l-22 -28 109 -6 c59 -4 116 -10 126 -14 33 -14 19 -43 -38 -77 -182 -109 -247 -153 -280 -190 l-38 -41 24 -10 c13 -5 53 -12 89 -15 64 -7 65 -7 68 -39 3 -28 0 -33 -25 -38 -85 -19 -282 -79 -308 -95 -43 -26 -145 -64 -255 -95 -116 -32 -214 -75 -202 -87 5 -5 33 -16 63 -24 41 -11 65 -12 99 -4 25 6 106 14 180 19 109 8 138 7 149 -4 28 -27 5 -41 -97 -58 -177 -30 -542 -145 -660 -210 l-64 -34 76 -28 c71 -26 81 -27 208 -22 123 4 142 8 255 46 192 65 417 177 463 232 8 10 159 113 335 230 307 203 678 476 720 528 37 46 384 530 394 550 27 50 162 205 259 297 l106 101 -33 42 c-39 49 -32 71 7 23 15 -18 34 -32 44 -32 9 0 70 -21 135 -47 116 -45 120 -46 233 -47 144 -1 154 4 210 116 72 146 65 260 -22 366 -27 34 -59 59 -97 77 -31 14 -71 37 -90 51 -49 35 -93 44 -211 44 l-105 0 -66 -44z"/>
 <path d="M2660 3373 c-73 -43 -110 -74 -126 -106 -9 -16 -13 -31 -11 -34 3 -2 45 12 93 32 122 50 191 105 134 105 -11 0 -23 7 -26 15 -8 20 -12 19 -64 -12z"/>
 <path d="M4740 2055 c-30 -6 -92 -31 -138 -54 -77 -40 -84 -46 -111 -99 -30 -59 -38 -96 -28 -122 3 -8 7 -35 10 -60 6 -60 58 -137 106 -157 63 -27 222 -4 284 39 28 20 45 19 32 -1 -31 -51 -238 -90 -322 -60 -28 9 -78 61 -111 113 -12 20 -13 20 -8 1 3 -11 10 -44 16 -73 5 -30 12 -58 16 -63 3 -6 0 -33 -6 -60 -10 -39 -18 -53 -39 -61 -35 -14 -131 2 -248 41 -49 17 -114 33 -145 37 -55 6 -55 6 -61 -22 -7 -36 2 -47 54 -64 37 -13 69 -49 69 -80 0 -15 -40 -12 -46 4 -9 22 -91 53 -189 70 -173 30 -190 19 -99 -62 58 -52 61 -66 17 -83 -18 -7 -58 1 -169 32 -80 22 -157 39 -172 37 -27 -3 -26 -4 30 -65 32 -34 55 -68 53 -76 -3 -7 -25 -24 -50 -37 l-44 -24 -97 18 c-67 13 -131 34 -203 67 -146 67 -211 67 -211 0 0 -71 18 -107 78 -159 73 -64 133 -90 362 -159 146 -44 205 -57 280 -62 l95 -6 -3 -57 -4 -57 67 -20 c81 -25 116 -26 200 -5 79 20 125 58 454 369 206 196 237 221 292 242 34 13 76 23 94 23 58 0 67 8 45 38 -22 32 -26 61 -16 122 18 111 55 172 114 191 20 6 42 15 47 19 23 17 119 39 131 29 6 -5 18 -7 25 -5 8 2 46 7 86 10 l71 6 59 -47 c32 -25 77 -64 101 -87 23 -23 42 -34 42 -26 0 8 -11 51 -25 97 -31 101 -75 157 -217 276 -43 37 -76 54 -139 74 -51 15 -95 23 -115 20 -25 -4 -39 0 -61 19 -19 16 -41 24 -68 25 -22 1 -60 3 -85 4 -25 2 -70 -3 -100 -10z m270 -50 c0 -3 -26 -31 -58 -63 -32 -32 -66 -74 -75 -95 -20 -40 -43 -51 -31 -14 18 60 164 213 164 172z m-225 -181 c9 -14 37 -35 61 -46 38 -16 50 -18 80 -8 36 12 51 9 40 -8 -12 -20 -81 -24 -124 -6 -39 15 -92 64 -92 85 0 17 18 9 35 -17z"/>
 <path d="M5031 1646 c-97 -42 -124 -82 -138 -208 -15 -146 109 -143 183 5 l25 49 -20 22 c-27 29 -27 77 0 102 61 55 39 68 -50 30z"/>
 </g>
<g id="layer103" fill="#007bad" stroke="none">
 <path d="M5390 5277 c0 -25 -9 -42 -34 -66 -36 -35 -38 -47 -51 -229 -3 -53 -5 -56 -217 -319 -117 -147 -218 -272 -223 -280 -7 -9 -34 -14 -83 -14 -64 -1 -77 2 -99 23 -32 30 -53 81 -53 128 0 51 -37 170 -62 197 -14 15 -18 29 -13 45 10 36 -56 -40 -104 -122 -39 -66 -41 -70 -31 -119 5 -29 14 -60 20 -71 12 -22 79 -60 106 -60 34 0 131 -52 156 -84 39 -49 38 -56 -12 -72 -66 -20 -244 -10 -525 31 -252 36 -362 50 -382 48 -7 0 -32 -1 -54 -2 -35 -1 -47 -7 -79 -43 -24 -26 -43 -59 -50 -87 -20 -84 -58 -174 -122 -290 -18 -32 -18 -33 -1 -26 37 15 217 17 286 3 57 -12 67 -13 67 -1 0 8 -14 69 -31 135 -16 67 -29 133 -27 147 5 44 53 47 512 28 226 -10 432 -17 458 -17 l46 0 212 249 c190 224 220 255 305 314 64 45 107 67 137 72 55 9 77 23 110 71 21 32 27 55 32 124 5 80 4 89 -23 146 -48 101 -80 147 -95 135 -10 -8 -17 -7 -26 4 -8 9 -22 21 -32 26 -16 8 -18 6 -18 -24z"/>
 <path d="M1304 4536 c-182 -90 -334 -169 -338 -174 -3 -6 -13 -97 -22 -202 l-15 -192 26 -34 c45 -58 77 -83 160 -124 66 -33 95 -41 161 -46 104 -8 124 1 124 59 l0 42 -97 3 c-57 1 -119 9 -148 19 -51 16 -141 83 -143 106 -13 122 -16 191 -9 211 15 46 22 28 22 -61 0 -49 4 -105 8 -125 16 -78 129 -129 282 -127 78 0 81 1 107 33 29 35 29 40 -11 116 -10 19 -56 35 -146 50 -38 7 -80 14 -93 17 -33 8 -67 68 -80 140 -14 79 -2 116 53 164 49 43 174 80 350 104 66 9 124 17 130 18 10 2 28 -121 19 -135 -3 -4 -46 -8 -95 -8 -70 0 -102 -5 -139 -21 l-50 -21 5 -46 c3 -33 11 -51 27 -64 101 -76 243 -91 287 -29 22 31 56 183 66 294 4 37 10 67 15 67 4 0 173 -180 375 -399 412 -448 361 -409 530 -412 82 -2 97 1 163 30 91 40 100 36 158 -57 1 -2 32 20 70 48 75 57 101 70 145 70 45 0 27 17 -56 56 l-73 33 -224 -10 c-207 -9 -276 -6 -288 10 -3 4 -70 64 -150 134 -158 140 -165 147 -416 389 -200 193 -242 225 -310 232 -47 5 -61 0 -380 -158z"/>
 <path d="M3510 3858 c-90 -16 -93 -12 75 -104 37 -20 77 -53 102 -84 89 -110 97 -236 24 -384 -23 -47 -53 -94 -67 -105 -34 -26 -17 -31 119 -32 153 0 186 -16 265 -124 65 -89 305 -488 317 -526 4 -13 42 -112 85 -219 43 -107 81 -213 84 -235 12 -68 13 -68 111 -20 50 25 102 45 116 45 39 0 42 11 11 44 -16 17 -77 94 -135 171 l-106 140 -146 335 c-81 184 -183 436 -226 560 -71 203 -85 235 -146 325 -80 118 -147 189 -188 199 -114 27 -197 31 -295 14z"/>
 <path d="M2660 3373 c-73 -43 -110 -74 -126 -106 -9 -16 -13 -31 -11 -34 3 -2 45 12 93 32 122 50 191 105 134 105 -11 0 -23 7 -26 15 -8 20 -12 19 -64 -12z"/>
 <path d="M4740 2055 c-30 -6 -92 -31 -138 -54 -77 -40 -84 -46 -111 -99 -30 -59 -38 -96 -28 -122 3 -8 7 -35 10 -60 6 -60 58 -137 106 -157 62 -26 221 -4 283 38 32 23 38 24 38 4 0 -22 16 -18 33 9 9 13 33 30 54 36 21 7 43 16 48 20 23 17 119 39 131 29 6 -5 18 -7 25 -5 8 2 46 7 86 10 l71 6 59 -47 c32 -25 77 -64 101 -87 23 -23 42 -34 42 -26 0 8 -11 51 -25 97 -31 101 -75 157 -217 276 -43 37 -76 54 -139 74 -51 15 -95 23 -115 20 -25 -4 -39 0 -61 19 -19 16 -41 24 -68 25 -22 1 -60 3 -85 4 -25 2 -70 -3 -100 -10z m270 -50 c0 -3 -26 -31 -58 -63 -32 -32 -66 -74 -75 -95 -20 -40 -43 -51 -31 -14 18 60 164 213 164 172z m-225 -181 c9 -14 37 -35 61 -46 38 -16 50 -18 80 -8 36 12 51 9 40 -8 -12 -20 -81 -24 -124 -6 -39 15 -92 64 -92 85 0 17 18 9 35 -17z"/>
 <path d="M5031 1646 c-97 -42 -124 -82 -138 -208 -15 -146 109 -143 183 5 l25 49 -20 22 c-27 29 -27 77 0 102 61 55 39 68 -50 30z"/>
 </g>
<g id="layer104" fill="#e2ba00" stroke="none">
 <path d="M5390 5277 c0 -25 -9 -42 -34 -66 -36 -35 -38 -47 -51 -229 -3 -53 -5 -56 -217 -319 -117 -147 -218 -272 -223 -280 -7 -9 -34 -14 -83 -14 -64 -1 -77 2 -99 23 -32 30 -53 81 -53 128 0 51 -37 170 -62 197 -14 15 -18 29 -13 45 10 36 -56 -40 -104 -122 -39 -66 -41 -70 -31 -119 5 -29 14 -60 20 -71 12 -22 79 -60 106 -60 34 0 131 -52 156 -84 39 -49 38 -56 -12 -72 -66 -20 -244 -10 -525 31 -252 36 -362 50 -382 48 -7 0 -32 -1 -54 -2 -35 -1 -47 -7 -79 -43 -24 -26 -43 -59 -50 -87 -20 -84 -58 -174 -122 -290 -18 -32 -18 -33 -1 -26 37 15 217 17 286 3 57 -12 67 -13 67 -1 0 8 -14 69 -31 135 -16 67 -29 133 -27 147 5 44 53 47 512 28 226 -10 432 -17 458 -17 l46 0 212 249 c190 224 220 255 305 314 64 45 107 67 137 72 55 9 77 23 110 71 21 32 27 55 32 124 5 80 4 89 -23 146 -48 101 -80 147 -95 135 -10 -8 -17 -7 -26 4 -8 9 -22 21 -32 26 -16 8 -18 6 -18 -24z"/>
 <path d="M1304 4536 c-182 -90 -334 -169 -338 -174 -3 -6 -13 -97 -22 -202 l-15 -192 26 -34 c45 -58 77 -83 160 -124 66 -33 95 -41 161 -46 104 -8 124 1 124 59 l0 42 -97 3 c-57 1 -119 9 -148 19 -51 16 -141 83 -143 106 -13 122 -16 191 -9 211 15 46 22 28 22 -61 0 -49 4 -105 8 -125 16 -78 129 -129 282 -127 78 0 81 1 107 33 29 35 29 40 -11 116 -10 19 -56 35 -146 50 -38 7 -80 14 -93 17 -33 8 -67 68 -80 140 -14 79 -2 116 53 164 49 43 174 80 350 104 66 9 124 17 130 18 10 2 28 -121 19 -135 -3 -4 -46 -8 -95 -8 -70 0 -102 -5 -139 -21 l-50 -21 5 -46 c3 -33 11 -51 27 -64 101 -76 243 -91 287 -29 22 31 56 183 66 294 4 37 10 67 15 67 4 0 173 -180 375 -399 412 -448 361 -409 530 -412 82 -2 97 1 163 30 91 40 100 36 158 -57 1 -2 32 20 70 48 75 57 101 70 145 70 45 0 27 17 -56 56 l-73 33 -224 -10 c-207 -9 -276 -6 -288 10 -3 4 -70 64 -150 134 -158 140 -165 147 -416 389 -200 193 -242 225 -310 232 -47 5 -61 0 -380 -158z"/>
 <path d="M4740 2055 c-30 -6 -92 -31 -138 -54 -77 -40 -84 -46 -111 -99 -30 -59 -38 -96 -28 -122 3 -8 7 -35 10 -60 6 -60 58 -137 106 -157 62 -26 221 -4 283 38 32 23 38 24 38 4 0 -22 16 -18 33 9 9 13 33 30 54 36 21 7 43 16 48 20 23 17 119 39 131 29 6 -5 18 -7 25 -5 8 2 46 7 86 10 l71 6 59 -47 c32 -25 77 -64 101 -87 23 -23 42 -34 42 -26 0 8 -11 51 -25 97 -31 101 -75 157 -217 276 -43 37 -76 54 -139 74 -51 15 -95 23 -115 20 -25 -4 -39 0 -61 19 -19 16 -41 24 -68 25 -22 1 -60 3 -85 4 -25 2 -70 -3 -100 -10z m270 -50 c0 -3 -26 -31 -58 -63 -32 -32 -66 -74 -75 -95 -20 -40 -43 -51 -31 -14 18 60 164 213 164 172z m-225 -181 c9 -14 37 -35 61 -46 38 -16 50 -18 80 -8 36 12 51 9 40 -8 -12 -20 -81 -24 -124 -6 -39 15 -92 64 -92 85 0 17 18 9 35 -17z"/>
 <path d="M5031 1646 c-97 -42 -124 -82 -138 -208 -15 -146 109 -143 183 5 l25 49 -20 22 c-27 29 -27 77 0 102 61 55 39 68 -50 30z"/>
 </g>
<g id="layer105" fill="#ffffff" stroke="none">
 <path d="M5031 1646 c-97 -42 -124 -82 -138 -208 -15 -146 109 -143 183 5 l25 49 -20 22 c-27 29 -27 77 0 102 61 55 39 68 -50 30z"/>
 </g>

</svg>